Coordinates
version=1
nRows=9
nColumns=32
inDegrees=yes

Units are S.I. units (second, meters, Newtons, ...)
If the header above contains a line with 'inDegrees', this indicates whether rotational values are in degrees (yes) or radians (no).

endheader
time	pelvis_tilt	pelvis_list	pelvis_rotation	pelvis_tx	pelvis_ty	pelvis_tz	hip_flexion_r	hip_adduction_r	hip_rotation_r	knee_angle_r	knee_adduction_r	med_cond_adduction_r	lat_cond_adduction_r	patella_r_constrained_knee_angle	ankle_angle_r	subtalar_angle_r	mtp_angle_r	hip_flexion_l	hip_adduction_l	hip_rotation_l	knee_angle_l	knee_adduction_l	med_cond_adduction_l	lat_cond_adduction_l	patella_l_constrained_knee_angle	ankle_angle_l	subtalar_angle_l	mtp_angle_l	lumbar_extension	lumbar_bending	lumbar_rotation
      2.60000000	      2.54143747	     10.05737013	    -91.53891847	      0.25698320	      0.87159778	     -0.89130111	     25.50061228	      1.61476252	     19.79132196	    -15.07947621	      0.00000000	     -0.00000000	      0.00000000	     -0.26318651	     -1.70463679	      0.28755142	     -0.00000000	      7.70767830	      0.85217765	     -7.74242445	    -45.21236023	      0.00000000	     -0.00000000	      0.00000000	     -0.78910455	    -21.24627221	     -6.01321078	      0.00000000	      0.00000000	      0.00000000	     -0.00000000
      2.60500000	      3.08890385	     10.04827324	    -91.68262764	      0.25745650	      0.87293816	     -0.88523272	     25.31756463	      0.84702334	     18.13552622	    -15.50089630	      0.00000000	     -0.00000000	      0.00000000	     -0.27054168	     -0.76761446	      2.59367551	     -0.00000000	      8.64381047	      1.58569550	     -7.61263230	    -45.93382556	      0.00000000	      0.00000000	     -0.00000000	     -0.80169649	    -20.26067419	     -7.02325010	     -0.00000000	      0.00000000	      0.00000000	     -0.00000000
      2.61000000	      3.62009249	     10.06542251	    -91.80123086	      0.25798652	      0.87420454	     -0.87924241	     25.16529310	      0.05537957	     16.36033397	    -15.91343972	     -0.00000000	     -0.00000000	      0.00000000	     -0.27774192	      0.09206429	      4.96221735	      0.00000000	      9.62834257	      2.30601430	     -7.49148299	    -46.58346316	     -0.00000000	      0.00000000	     -0.00000000	     -0.81303481	    -19.26438778	     -7.98674625	     -0.00000000	      0.00000000	      0.00000000	     -0.00000000
      2.61500000	      4.20746631	     10.04703090	    -91.94385995	      0.25857091	      0.87552428	     -0.87327923	     24.98394660	     -0.81446246	     14.52989780	    -16.33052806	      0.00000000	     -0.00000000	      0.00000000	     -0.28502148	      0.86887060	      7.36475896	     -0.00000000	     10.54993934	      3.09439100	     -7.38520078	    -47.09861913	     -0.00000000	      0.00000000	     -0.00000000	     -0.82202598	    -18.23620042	     -8.78643724	     -0.00000000	      0.00000000	      0.00000000	     -0.00000000
      2.62000000	      4.77548781	     10.05553054	    -92.07404328	      0.25918939	      0.87677581	     -0.86733050	     24.82355908	     -1.69412450	     12.61298754	    -16.73367972	     -0.00000000	     -0.00000000	      0.00000000	     -0.29205781	      1.59780212	      9.76542544	      0.00000000	     11.49768647	      3.86707512	     -7.29243924	    -47.51521825	     -0.00000000	      0.00000000	     -0.00000000	     -0.82929700	    -17.26588688	     -9.60064153	     -0.00000000	      0.00000000	      0.00000000	     -0.00000000
      2.62500000	      5.31691426	     10.07480015	    -92.14826546	      0.25993477	      0.87798220	     -0.86142205	     24.66539013	     -2.59110820	     10.58089394	    -17.13661249	     -0.00000000	      0.00000000	     -0.00000000	     -0.29909031	      2.23365552	     12.11317100	     -0.00000000	     12.46008760	      4.61778915	     -7.17321657	    -47.84778950	     -0.00000000	     -0.00000000	      0.00000000	     -0.83510147	    -16.33982144	    -10.37690488	     -0.00000000	      0.00000000	      0.00000000	     -0.00000000
      2.63000000	      5.85984296	     10.09011910	    -92.20327812	      0.26068190	      0.87916358	     -0.85551318	     24.48673370	     -3.50965493	      8.48930367	    -17.52447641	     -0.00000000	     -0.00000000	      0.00000000	     -0.30585981	      2.79408800	     14.33982980	      0.00000000	     13.39823183	      5.37534763	     -7.04355092	    -48.06282879	     -0.00000000	     -0.00000000	      0.00000000	     -0.83885461	    -15.50130401	    -11.11244720	     -0.00000000	      0.00000000	      0.00000000	     -0.00000000
      2.63500000	      6.37206251	     10.10055107	    -92.25437842	      0.26141237	      0.88030722	     -0.84960105	     24.28450377	     -4.40073333	      6.38815567	    -17.88959811	      0.00000000	     -0.00000000	      0.00000000	     -0.31223239	      3.25170038	     16.31983010	      0.00000000	     14.31719623	      6.09183009	     -6.93258882	    -48.18732776	      0.00000000	     -0.00000000	      0.00000000	     -0.84102753	    -14.66714473	    -11.74273771	      0.00000000	      0.00000000	      0.00000000	     -0.00000000
      2.64000000	      6.85235269	     10.10264456	    -92.28906677	      0.26205198	      0.88141501	     -0.84369616	     24.05118624	     -5.24198841	      4.30943164	    -18.23465793	      0.00000000	     -0.00000000	      0.00000000	     -0.31825482	      3.59485758	     17.81526826	     -0.00000000	     15.20829308	      6.75699819	     -6.82894740	    -48.21256726	      0.00000000	     -0.00000000	      0.00000000	     -0.84146804	    -13.86829652	    -12.26660288	      0.00000000	      0.00000000	      0.00000000	     -0.00000000
